<?xml version="1.0" encoding="UTF-8"?>
<svg id="Layer_2" data-name="Layer 2" xmlns="http://www.w3.org/2000/svg" xmlns:xlink="http://www.w3.org/1999/xlink" viewBox="0 0 1425.29 271.45">
  <defs>
    <style>
      .cls-1 {
        fill: url(#linear-gradient-4);
      }

      .cls-2 {
        fill: url(#linear-gradient-3);
      }

      .cls-3 {
        fill: url(#linear-gradient-2);
      }

      .cls-4 {
        fill: url(#linear-gradient);
      }

      .cls-5 {
        fill: #fff;
      }
    </style>
    <linearGradient id="linear-gradient" x1="274.88" y1="-95.38" x2="51.38" y2="122.06" gradientUnits="userSpaceOnUse">
      <stop offset="0" stop-color="#abc1ff"/>
      <stop offset="1" stop-color="#5284ff"/>
    </linearGradient>
    <linearGradient id="linear-gradient-2" x1="284.4" y1="-85.59" x2="60.9" y2="131.85" xlink:href="#linear-gradient"/>
    <linearGradient id="linear-gradient-3" x1="372.48" y1="4.93" x2="148.97" y2="222.37" xlink:href="#linear-gradient"/>
    <linearGradient id="linear-gradient-4" x1="342.85" y1="-25.52" x2="119.34" y2="191.92" xlink:href="#linear-gradient"/>
  </defs>
  <g id="Layer_1-2" data-name="Layer 1">
    <g>
      <g>
        <path class="cls-5" d="M355.9,49.39h77.58c35.4,0,55.45,16.92,55.45,46.86,0,18.48-7.81,30.46-24.21,37.75,20.57,6.25,30.2,23.69,30.2,46.08,0,32.02-22.13,51.55-60.4,51.55h-78.62V49.39ZM430.09,124.37c21.35,0,29.16-8.59,29.16-23.43,0-15.88-8.33-23.43-29.42-23.43h-44.52v46.86h44.78ZM433.73,203.5c23.95,0,31.5-10.15,31.5-25.77,0-16.66-7.81-26.29-31.76-26.29h-48.16v52.06h48.42Z"/>
        <path class="cls-5" d="M641.33,88.44v143.18h-29.42v-23.69c-10.15,16.4-25.51,26.81-47.64,26.81-31.76,0-50.76-21.09-50.76-55.97v-90.33h29.42v84.35c0,22.13,9.37,33.84,30.72,33.84,24.47,0,38.27-16.4,38.27-44v-74.19h29.42Z"/>
        <path class="cls-5" d="M659.09,160.03c0-43.74,28.37-74.71,65.86-74.71,22.65,0,40.09,11.19,50.5,27.6V36.7h29.42v194.92h-29.42v-24.21c-10.41,16.4-27.86,27.34-50.25,27.34-38.27,0-66.12-30.98-66.12-74.72ZM775.46,160.03c0-27.33-19-46.6-44-46.6s-42.69,19.26-42.69,46.6,17.96,46.6,42.69,46.6,44-19,44-46.6Z"/>
        <path class="cls-5" d="M821.69,160.03c0-43.74,28.37-74.71,65.86-74.71,22.65,0,40.09,11.19,50.5,27.6V36.7h29.42v194.92h-29.42v-24.21c-10.41,16.4-27.86,27.34-50.25,27.34-38.27,0-66.12-30.98-66.12-74.72ZM938.06,160.03c0-27.33-19-46.6-44-46.6s-42.69,19.26-42.69,46.6,17.96,46.6,42.69,46.6,44-19,44-46.6Z"/>
        <path class="cls-5" d="M1103.88,116.29l-82,87.73,83.31-.26v27.86h-120.79v-27.86l81.74-87.73-77.06.26v-27.85h114.81v27.85Z"/>
        <path class="cls-5" d="M1118.13,160.29c0-43.22,30.72-74.98,73.94-74.98,46.08,0,75.23,35.67,72.37,82.79h-116.11c2.08,26.29,20.56,40.87,44.51,40.87,17.18,0,31.5-7.29,38.27-21.35h30.46c-11.19,32.02-38.53,46.86-68.99,46.86-43.47,0-74.45-30.98-74.45-74.19ZM1232.94,144.15c-4.43-19.78-19-33.32-40.87-33.32s-37.49,13.8-42.18,33.32h83.05Z"/>
        <path class="cls-5" d="M1278.79,160.29c0-43.22,30.72-74.98,73.94-74.98,46.08,0,75.23,35.67,72.37,82.79h-116.11c2.08,26.29,20.56,40.87,44.51,40.87,17.18,0,31.5-7.29,38.27-21.35h30.46c-11.19,32.02-38.53,46.86-68.99,46.86-43.47,0-74.45-30.98-74.45-74.19ZM1393.59,144.15c-4.43-19.78-19-33.32-40.87-33.32s-37.49,13.8-42.18,33.32h83.05Z"/>
      </g>
      <g>
        <g>
          <g id="_Radial_Repeat_" data-name="&amp;lt;Radial Repeat&amp;gt;">
            <path class="cls-4" d="M1.97,135.72c6.58-29.53,27.76-53.47,47.29-53.47s30.03,23.94,23.45,53.47-27.76,53.47-47.29,53.47S-4.62,165.25,1.97,135.72Z"/>
          </g>
          <g id="_Radial_Repeat_-2" data-name="&amp;lt;Radial Repeat&amp;gt;">
            <path class="cls-3" d="M167.95,0c29.53,0,49.93,15.84,45.58,35.37-4.36,19.54-31.83,35.37-61.35,35.37s-49.93-15.84-45.58-35.37C110.96,15.84,138.43,0,167.95,0Z"/>
          </g>
          <g id="_Radial_Repeat_-3" data-name="&amp;lt;Radial Repeat&amp;gt;">
            <path class="cls-2" d="M273.41,135.72c-6.58,29.53-27.76,53.47-47.29,53.47s-30.03-23.94-23.45-53.47c6.58-29.53,27.76-53.47,47.29-53.47s30.03,23.94,23.45,53.47Z"/>
          </g>
        </g>
        <path class="cls-1" d="M142.42,191.57l.22-.97c1.2-5.4,5.29-10.24,10.55-13,23.78-12.47,40.8-40.26,32.19-67.97-2.02-6.49-6.04-11.9-11.7-15.43-32.93-20.56-76.78,6.05-84.69,41.52-3.98,17.85,2.16,33.43,14.59,41.9,4.02,2.74,5.9,7.58,4.7,12.96l-.22.99c-1.36,6.08-6.26,11.65-12.42,13.8-17.45,6.09-30.85,17.55-33.79,30.7-4.36,19.54,16.05,35.37,45.58,35.37s57-15.84,61.35-35.37c2.93-13.15-5.36-24.61-20.09-30.7-5.2-2.15-7.62-7.72-6.27-13.8Z"/>
      </g>
    </g>
  </g>
</svg>