<?xml version="1.0" encoding="UTF-8"?>
<svg id="Layer_1" data-name="Layer 1" xmlns="http://www.w3.org/2000/svg" xmlns:xlink="http://www.w3.org/1999/xlink" viewBox="0 0 1920 1080">
  <defs>
    <style>
      .cls-1 {
        fill: url(#linear-gradient-4);
      }

      .cls-2 {
        fill: url(#linear-gradient-3);
      }

      .cls-3 {
        fill: url(#linear-gradient-2);
      }

      .cls-4 {
        fill: url(#linear-gradient);
      }

      .cls-5 {
        fill: #09142b;
      }
    </style>
    <linearGradient id="linear-gradient" x1="796.86" y1="453.87" x2="713.56" y2="534.91" gradientUnits="userSpaceOnUse">
      <stop offset="0" stop-color="#abc1ff"/>
      <stop offset="1" stop-color="#5284ff"/>
    </linearGradient>
    <linearGradient id="linear-gradient-2" x1="800.4" y1="457.52" x2="717.11" y2="538.56" xlink:href="#linear-gradient"/>
    <linearGradient id="linear-gradient-3" x1="833.23" y1="491.26" x2="749.93" y2="572.29" xlink:href="#linear-gradient"/>
    <linearGradient id="linear-gradient-4" x1="822.18" y1="479.91" x2="738.89" y2="560.94" xlink:href="#linear-gradient"/>
  </defs>
  <g>
    <path class="cls-5" d="M827.05,507.83h28.91c13.19,0,20.66,6.31,20.66,17.46,0,6.89-2.91,11.35-9.02,14.07,7.67,2.33,11.25,8.83,11.25,17.17,0,11.93-8.25,19.21-22.51,19.21h-29.3v-67.91ZM854.7,535.77c7.96,0,10.87-3.2,10.87-8.73,0-5.92-3.1-8.73-10.96-8.73h-16.59v17.46h16.69ZM856.06,565.26c8.93,0,11.74-3.78,11.74-9.6,0-6.21-2.91-9.8-11.84-9.8h-17.95v19.4h18.05Z"/>
    <path class="cls-5" d="M933.42,522.38v53.36h-10.96v-8.83c-3.78,6.11-9.51,9.99-17.75,9.99-11.84,0-18.92-7.86-18.92-20.86v-33.67h10.96v31.43c0,8.25,3.49,12.61,11.45,12.61,9.12,0,14.26-6.11,14.26-16.4v-27.65h10.96Z"/>
    <path class="cls-5" d="M940.04,549.06c0-16.3,10.57-27.84,24.55-27.84,8.44,0,14.94,4.17,18.82,10.28v-28.4h10.96v72.64h-10.96v-9.02c-3.88,6.11-10.38,10.19-18.73,10.19-14.26,0-24.64-11.55-24.64-27.85ZM983.41,549.06c0-10.19-7.08-17.37-16.4-17.37s-15.91,7.18-15.91,17.37,6.69,17.37,15.91,17.37,16.4-7.08,16.4-17.37Z"/>
    <path class="cls-5" d="M1000.64,549.06c0-16.3,10.57-27.84,24.55-27.84,8.44,0,14.94,4.17,18.82,10.28v-28.4h10.96v72.64h-10.96v-9.02c-3.88,6.11-10.38,10.19-18.73,10.19-14.26,0-24.64-11.55-24.64-27.85ZM1044.01,549.06c0-10.19-7.08-17.37-16.4-17.37s-15.91,7.18-15.91,17.37,6.69,17.37,15.91,17.37,16.4-7.08,16.4-17.37Z"/>
    <path class="cls-5" d="M1105.81,532.76l-30.56,32.7,31.05-.1v10.38h-45.02v-10.38l30.46-32.7-28.72.1v-10.38h42.79v10.38Z"/>
    <path class="cls-5" d="M1111.12,549.16c0-16.11,11.45-27.94,27.55-27.94,17.17,0,28.04,13.29,26.97,30.85h-43.27c.78,9.8,7.66,15.23,16.59,15.23,6.4,0,11.74-2.72,14.26-7.96h11.35c-4.17,11.93-14.36,17.46-25.71,17.46-16.2,0-27.75-11.54-27.75-27.65ZM1153.9,543.14c-1.65-7.37-7.08-12.42-15.23-12.42s-13.97,5.14-15.72,12.42h30.95Z"/>
    <path class="cls-5" d="M1170.99,549.16c0-16.11,11.45-27.94,27.55-27.94,17.17,0,28.04,13.29,26.97,30.85h-43.27c.78,9.8,7.66,15.23,16.59,15.23,6.4,0,11.74-2.72,14.26-7.96h11.35c-4.17,11.93-14.36,17.46-25.71,17.46-16.2,0-27.75-11.54-27.75-27.65ZM1213.78,543.14c-1.65-7.37-7.08-12.42-15.23-12.42s-13.97,5.14-15.72,12.42h30.95Z"/>
  </g>
  <g>
    <g>
      <g id="_Radial_Repeat_" data-name="&amp;lt;Radial Repeat&amp;gt;">
        <path class="cls-4" d="M695.15,540c2.45-11,10.35-19.93,17.63-19.93s11.19,8.92,8.74,19.93-10.35,19.93-17.63,19.93-11.19-8.92-8.74-19.93Z"/>
      </g>
      <g id="_Radial_Repeat_-2" data-name="&amp;lt;Radial Repeat&amp;gt;">
        <path class="cls-3" d="M757.01,489.42c11,0,18.61,5.9,16.99,13.18s-11.86,13.18-22.87,13.18-18.61-5.9-16.99-13.18c1.62-7.28,11.86-13.18,22.87-13.18Z"/>
      </g>
      <g id="_Radial_Repeat_-3" data-name="&amp;lt;Radial Repeat&amp;gt;">
        <path class="cls-2" d="M796.31,540c-2.45,11-10.35,19.93-17.63,19.93s-11.19-8.92-8.74-19.93c2.45-11,10.35-19.93,17.63-19.93s11.19,8.92,8.74,19.93Z"/>
      </g>
    </g>
    <path class="cls-1" d="M747.49,560.81l.08-.36c.45-2.01,1.97-3.82,3.93-4.85,8.86-4.65,15.21-15,12-25.33-.75-2.42-2.25-4.43-4.36-5.75-12.27-7.66-28.61,2.26-31.56,15.47-1.48,6.65.8,12.46,5.44,15.62,1.5,1.02,2.2,2.83,1.75,4.83l-.08.37c-.51,2.27-2.33,4.34-4.63,5.14-6.5,2.27-11.5,6.54-12.59,11.44-1.62,7.28,5.98,13.18,16.99,13.18s21.24-5.9,22.87-13.18c1.09-4.9-2-9.17-7.49-11.44-1.94-.8-2.84-2.88-2.34-5.14Z"/>
  </g>
</svg>