<?xml version="1.0" encoding="UTF-8"?>
<svg id="Layer_2" data-name="Layer 2" xmlns="http://www.w3.org/2000/svg" viewBox="0 0 853.09 840.92">
  <g id="Layer_1-2" data-name="Layer 1">
    <g>
      <g>
        <g id="_Radial_Repeat_" data-name="&amp;lt;Radial Repeat&amp;gt;">
          <path d="M6.09,420.46c20.4-91.48,86-165.63,146.52-165.63s93.05,74.16,72.65,165.63c-20.4,91.48-86,165.63-146.52,165.63S-14.31,511.93,6.09,420.46Z"/>
        </g>
        <g id="_Radial_Repeat_-2" data-name="&amp;lt;Radial Repeat&amp;gt;">
          <path d="M520.31,0c91.48,0,154.69,49.06,141.2,109.58-13.5,60.52-98.59,109.58-190.07,109.58s-154.69-49.06-141.2-109.58C343.74,49.06,428.83,0,520.31,0Z"/>
        </g>
        <g id="_Radial_Repeat_-3" data-name="&amp;lt;Radial Repeat&amp;gt;">
          <path d="M847.01,420.46c-20.4,91.48-86,165.63-146.52,165.63s-93.05-74.16-72.65-165.63c20.4-91.48,86-165.63,146.52-165.63s93.05,74.16,72.65,165.63Z"/>
        </g>
      </g>
      <path d="M441.19,593.48l.67-3c3.73-16.74,16.39-31.73,32.69-40.28,73.66-38.63,126.4-124.71,99.72-210.56-6.25-20.09-18.72-36.86-36.25-47.81-102-63.7-237.85,18.75-262.35,128.63-12.33,55.29,6.68,103.56,45.18,129.81,12.44,8.48,18.29,23.49,14.57,40.14l-.68,3.06c-4.2,18.83-19.39,36.08-38.49,42.75-54.06,18.88-95.58,54.38-104.66,95.11-13.5,60.52,49.72,109.58,141.2,109.58s176.57-49.06,190.07-109.58c9.08-40.73-16.6-76.23-62.24-95.11-16.12-6.67-23.62-23.92-19.42-42.75Z"/>
    </g>
  </g>
</svg>